<svg xmlns="http://www.w3.org/2000/svg" xmlns:xlink="http://www.w3.org/1999/xlink" width="83" zoomAndPan="magnify" viewBox="0 0 62.25 30.000001" height="40" preserveAspectRatio="xMidYMid meet" version="1.0"><defs><g/></defs><g fill="#000000" fill-opacity="1"><g transform="translate(3.544354, 21.400826)"><g><path d="M 7.59375 -3.765625 C 7.59375 -3.035156 7.421875 -2.378906 7.078125 -1.796875 C 6.742188 -1.210938 6.28125 -0.742188 5.6875 -0.390625 C 5.09375 -0.046875 4.414062 0.125 3.65625 0.125 C 2.957031 0.125 2.304688 -0.046875 1.703125 -0.390625 C 1.109375 -0.742188 0.632812 -1.21875 0.28125 -1.8125 C -0.0625 -2.40625 -0.234375 -3.0625 -0.234375 -3.78125 L -0.234375 -7.90625 C -0.234375 -8.625 -0.0546875 -9.28125 0.296875 -9.875 C 0.660156 -10.46875 1.140625 -10.9375 1.734375 -11.28125 C 2.328125 -11.632812 2.96875 -11.8125 3.65625 -11.8125 C 4.351562 -11.8125 5 -11.632812 5.59375 -11.28125 C 6.1875 -10.9375 6.664062 -10.472656 7.03125 -9.890625 C 7.40625 -9.304688 7.59375 -8.648438 7.59375 -7.921875 C 7.59375 -7.503906 7.457031 -7.195312 7.1875 -7 C 6.925781 -6.800781 6.625 -6.703125 6.28125 -6.703125 C 5.976562 -6.703125 5.691406 -6.800781 5.421875 -7 C 5.160156 -7.195312 5.03125 -7.503906 5.03125 -7.921875 C 5.03125 -8.296875 4.894531 -8.609375 4.625 -8.859375 C 4.351562 -9.109375 4.03125 -9.234375 3.65625 -9.234375 C 3.300781 -9.234375 2.992188 -9.101562 2.734375 -8.84375 C 2.484375 -8.582031 2.359375 -8.269531 2.359375 -7.90625 L 2.359375 -3.78125 C 2.359375 -3.414062 2.484375 -3.101562 2.734375 -2.84375 C 2.992188 -2.582031 3.300781 -2.453125 3.65625 -2.453125 C 4.039062 -2.453125 4.363281 -2.582031 4.625 -2.84375 C 4.894531 -3.101562 5.03125 -3.410156 5.03125 -3.765625 C 5.03125 -4.128906 5.160156 -4.414062 5.421875 -4.625 C 5.691406 -4.832031 5.976562 -4.9375 6.28125 -4.9375 C 6.625 -4.9375 6.925781 -4.832031 7.1875 -4.625 C 7.457031 -4.414062 7.59375 -4.128906 7.59375 -3.765625 Z M 7.59375 -3.765625 "/></g></g></g><g fill="#000000" fill-opacity="1"><g transform="translate(12.773287, 21.400826)"><g><path d="M 2.453125 -3.953125 C 2.453125 -3.535156 2.582031 -3.1875 2.84375 -2.90625 C 3.113281 -2.625 3.425781 -2.484375 3.78125 -2.484375 C 4.25 -2.484375 4.578125 -2.351562 4.765625 -2.09375 C 4.960938 -1.832031 5.0625 -1.546875 5.0625 -1.234375 C 5.0625 -0.910156 4.957031 -0.609375 4.75 -0.328125 C 4.539062 -0.0546875 4.21875 0.078125 3.78125 0.078125 C 3.039062 0.078125 2.378906 -0.09375 1.796875 -0.4375 C 1.210938 -0.789062 0.753906 -1.265625 0.421875 -1.859375 C 0.0859375 -2.460938 -0.078125 -3.160156 -0.078125 -3.953125 L -0.078125 -15.703125 C -0.078125 -16.160156 0.046875 -16.476562 0.296875 -16.65625 C 0.546875 -16.84375 0.84375 -16.9375 1.1875 -16.9375 C 1.5 -16.9375 1.785156 -16.832031 2.046875 -16.625 C 2.316406 -16.414062 2.453125 -16.109375 2.453125 -15.703125 Z M 2.453125 -3.953125 "/></g></g></g><g fill="#000000" fill-opacity="1"><g transform="translate(18.652817, 21.400826)"><g><path d="M 3.5 -2.3125 C 3.894531 -2.3125 4.222656 -2.425781 4.484375 -2.65625 C 4.753906 -2.894531 4.890625 -3.195312 4.890625 -3.5625 L 4.890625 -7.34375 C 4.921875 -7.832031 4.789062 -8.234375 4.5 -8.546875 C 4.21875 -8.859375 3.882812 -9.015625 3.5 -9.015625 C 3.144531 -9.015625 2.820312 -8.898438 2.53125 -8.671875 C 2.257812 -8.484375 1.96875 -8.394531 1.65625 -8.40625 C 1.34375 -8.425781 1.078125 -8.539062 0.859375 -8.75 C 0.640625 -8.96875 0.53125 -9.265625 0.53125 -9.640625 C 0.53125 -9.828125 0.566406 -10.015625 0.640625 -10.203125 C 0.722656 -10.390625 0.851562 -10.554688 1.03125 -10.703125 C 1.382812 -10.984375 1.757812 -11.203125 2.15625 -11.359375 C 2.5625 -11.515625 3.007812 -11.59375 3.5 -11.59375 C 4.1875 -11.59375 4.828125 -11.414062 5.421875 -11.0625 C 6.015625 -10.71875 6.492188 -10.253906 6.859375 -9.671875 C 7.234375 -9.085938 7.421875 -8.429688 7.421875 -7.703125 L 7.421875 -3.546875 C 7.421875 -2.835938 7.253906 -2.203125 6.921875 -1.640625 C 6.597656 -1.078125 6.140625 -0.632812 5.546875 -0.3125 C 4.953125 0.0078125 4.269531 0.171875 3.5 0.171875 C 2.789062 0.171875 2.140625 -0.00390625 1.546875 -0.359375 C 0.960938 -0.710938 0.5 -1.1875 0.15625 -1.78125 C -0.1875 -2.375 -0.359375 -3.035156 -0.359375 -3.765625 C -0.359375 -4.515625 -0.179688 -5.148438 0.171875 -5.671875 C 0.535156 -6.191406 1.007812 -6.585938 1.59375 -6.859375 C 2.1875 -7.140625 2.820312 -7.28125 3.5 -7.28125 L 4.390625 -7.28125 L 4.390625 -5.125 L 3.5 -5.125 C 3.144531 -5.125 2.820312 -4.972656 2.53125 -4.671875 C 2.238281 -4.378906 2.09375 -4.050781 2.09375 -3.6875 C 2.09375 -3.3125 2.238281 -2.988281 2.53125 -2.71875 C 2.820312 -2.445312 3.144531 -2.3125 3.5 -2.3125 Z M 3.5 -2.3125 "/></g></g></g><g fill="#000000" fill-opacity="1"><g transform="translate(27.929944, 21.400826)"><g><path d="M 2.546875 3.34375 C 2.546875 3.78125 2.414062 4.101562 2.15625 4.3125 C 1.894531 4.519531 1.601562 4.625 1.28125 4.625 C 0.96875 4.625 0.664062 4.519531 0.375 4.3125 C 0.09375 4.101562 -0.046875 3.78125 -0.046875 3.34375 L -0.046875 -7.65625 C -0.046875 -8.382812 0.128906 -9.050781 0.484375 -9.65625 C 0.835938 -10.269531 1.304688 -10.757812 1.890625 -11.125 C 2.472656 -11.5 3.132812 -11.6875 3.875 -11.6875 C 4.632812 -11.6875 5.3125 -11.507812 5.90625 -11.15625 C 6.5 -10.800781 6.96875 -10.328125 7.3125 -9.734375 C 7.65625 -9.140625 7.828125 -8.484375 7.828125 -7.765625 L 7.828125 -3.78125 C 7.828125 -3.070312 7.65625 -2.429688 7.3125 -1.859375 C 6.976562 -1.296875 6.515625 -0.84375 5.921875 -0.5 C 5.328125 -0.164062 4.644531 0 3.875 0 L 3.0625 0 L 3.0625 -2.140625 L 3.875 -2.140625 C 4.257812 -2.140625 4.585938 -2.285156 4.859375 -2.578125 C 5.140625 -2.878906 5.28125 -3.21875 5.28125 -3.59375 L 5.28125 -7.765625 C 5.28125 -8.128906 5.140625 -8.441406 4.859375 -8.703125 C 4.585938 -8.972656 4.257812 -9.109375 3.875 -9.109375 C 3.488281 -9.109375 3.171875 -8.96875 2.921875 -8.6875 C 2.671875 -8.40625 2.546875 -8.0625 2.546875 -7.65625 Z M 2.546875 3.34375 "/></g></g></g><g fill="#000000" fill-opacity="1"><g transform="translate(37.616707, 21.400826)"><g><path d="M 2.546875 3.34375 C 2.546875 3.78125 2.414062 4.101562 2.15625 4.3125 C 1.894531 4.519531 1.601562 4.625 1.28125 4.625 C 0.96875 4.625 0.664062 4.519531 0.375 4.3125 C 0.09375 4.101562 -0.046875 3.78125 -0.046875 3.34375 L -0.046875 -7.65625 C -0.046875 -8.382812 0.128906 -9.050781 0.484375 -9.65625 C 0.835938 -10.269531 1.304688 -10.757812 1.890625 -11.125 C 2.472656 -11.5 3.132812 -11.6875 3.875 -11.6875 C 4.632812 -11.6875 5.3125 -11.507812 5.90625 -11.15625 C 6.5 -10.800781 6.96875 -10.328125 7.3125 -9.734375 C 7.65625 -9.140625 7.828125 -8.484375 7.828125 -7.765625 L 7.828125 -3.78125 C 7.828125 -3.070312 7.65625 -2.429688 7.3125 -1.859375 C 6.976562 -1.296875 6.515625 -0.84375 5.921875 -0.5 C 5.328125 -0.164062 4.644531 0 3.875 0 L 3.0625 0 L 3.0625 -2.140625 L 3.875 -2.140625 C 4.257812 -2.140625 4.585938 -2.285156 4.859375 -2.578125 C 5.140625 -2.878906 5.28125 -3.21875 5.28125 -3.59375 L 5.28125 -7.765625 C 5.28125 -8.128906 5.140625 -8.441406 4.859375 -8.703125 C 4.585938 -8.972656 4.257812 -9.109375 3.875 -9.109375 C 3.488281 -9.109375 3.171875 -8.96875 2.921875 -8.6875 C 2.671875 -8.40625 2.546875 -8.0625 2.546875 -7.65625 Z M 2.546875 3.34375 "/></g></g></g><g fill="#000000" fill-opacity="1"><g transform="translate(47.30347, 21.400826)"><g><path d="M 1.28125 -15.015625 C 1.820312 -15.015625 2.21875 -14.859375 2.46875 -14.546875 C 2.726562 -14.234375 2.859375 -13.863281 2.859375 -13.4375 C 2.859375 -12.914062 2.675781 -12.523438 2.3125 -12.265625 C 1.945312 -12.003906 1.601562 -11.875 1.28125 -11.875 C 1.132812 -11.875 0.929688 -11.910156 0.671875 -11.984375 C 0.421875 -12.054688 0.195312 -12.203125 0 -12.421875 C -0.207031 -12.648438 -0.3125 -12.988281 -0.3125 -13.4375 C -0.3125 -13.863281 -0.164062 -14.234375 0.125 -14.546875 C 0.425781 -14.859375 0.8125 -15.015625 1.28125 -15.015625 Z M 2.578125 -9.703125 C 2.578125 -10.171875 2.445312 -10.515625 2.1875 -10.734375 C 1.9375 -10.960938 1.640625 -11.078125 1.296875 -11.078125 C 0.992188 -11.078125 0.703125 -10.960938 0.421875 -10.734375 C 0.140625 -10.515625 0 -10.171875 0 -9.703125 L 0 -1.34375 C 0 -0.863281 0.128906 -0.503906 0.390625 -0.265625 C 0.660156 -0.0351562 0.945312 0.078125 1.25 0.078125 C 1.601562 0.078125 1.910156 -0.0507812 2.171875 -0.3125 C 2.441406 -0.570312 2.578125 -0.914062 2.578125 -1.34375 Z M 2.578125 -9.703125 "/></g></g></g><g fill="#000000" fill-opacity="1"><g transform="translate(51.689022, 21.400826)"><g><path d="M 3.703125 -11.59375 C 4.128906 -11.59375 4.441406 -11.453125 4.640625 -11.171875 C 4.835938 -10.898438 4.9375 -10.601562 4.9375 -10.28125 C 4.9375 -9.976562 4.835938 -9.691406 4.640625 -9.421875 C 4.441406 -9.160156 4.128906 -9.03125 3.703125 -9.03125 L 2.53125 -9.03125 L 2.53125 -3.921875 C 2.53125 -3.523438 2.675781 -3.1875 2.96875 -2.90625 C 3.269531 -2.625 3.640625 -2.484375 4.078125 -2.484375 C 4.492188 -2.484375 4.800781 -2.34375 5 -2.0625 C 5.195312 -1.789062 5.296875 -1.5 5.296875 -1.1875 C 5.296875 -0.863281 5.195312 -0.570312 5 -0.3125 C 4.800781 -0.0507812 4.492188 0.078125 4.078125 0.078125 C 3.285156 0.078125 2.578125 -0.09375 1.953125 -0.4375 C 1.335938 -0.789062 0.851562 -1.265625 0.5 -1.859375 C 0.144531 -2.453125 -0.03125 -3.140625 -0.03125 -3.921875 L -0.03125 -15.6875 C -0.03125 -16.101562 0.0976562 -16.414062 0.359375 -16.625 C 0.617188 -16.832031 0.925781 -16.9375 1.28125 -16.9375 C 1.582031 -16.9375 1.863281 -16.832031 2.125 -16.625 C 2.394531 -16.414062 2.53125 -16.101562 2.53125 -15.6875 L 2.53125 -11.59375 Z M 3.703125 -11.59375 "/></g></g></g></svg>